<svg xmlns="http://www.w3.org/2000/svg" version="1.1" width="200" height="200"> 
<rect x=" 80.0 " y=" 80.0 " height="8" width="8" fill="red"/>
<circle cx=" 44.0 " cy=" 44.0 " r="2" fill="black"/>
<circle cx=" 72.0 " cy=" 52.0 " r="2" fill="black"/>
<circle cx=" 42.0 " cy=" 90.0 " r="2" fill="black"/>
<circle cx=" 90.0 " cy=" 70.0 " r="2" fill="black"/>
<circle cx=" 110.0 " cy=" 40.0 " r="2" fill="black"/>
<circle cx=" 66.0 " cy=" 68.0 " r="2" fill="black"/>
<circle cx=" 100.0 " cy=" 100.0 " r="2" fill="black"/>
<circle cx=" 110.0 " cy=" 90.0 " r="2" fill="black"/>
<circle cx=" 52.0 " cy=" 118.0 " r="2" fill="black"/>
<circle cx=" 80.0 " cy=" 132.0 " r="2" fill="black"/>
<circle cx=" 110.0 " cy=" 130.0 " r="2" fill="black"/>
<circle cx=" 70.0 " cy=" 102.0 " r="2" fill="black"/>
<circle cx=" 124.0 " cy=" 70.0 " r="2" fill="black"/>
<circle cx=" 124.0 " cy=" 114.0 " r="2" fill="black"/>
<circle cx=" 124.0 " cy=" 48.0 " r="2" fill="black"/>
<circle cx=" 42.0 " cy=" 72.0 " r="2" fill="black"/>
<circle cx=" 66.0 " cy=" 88.0 " r="2" fill="black"/>
<circle cx=" 18.0 " cy=" 112.0 " r="2" fill="black"/>
<circle cx=" 124.0 " cy=" 96.0 " r="2" fill="black"/>
<circle cx=" 132.0 " cy=" 28.0 " r="2" fill="black"/>
<circle cx=" 88.0 " cy=" 26.0 " r="2" fill="black"/>
<circle cx=" 52.0 " cy=" 26.0 " r="2" fill="black"/>
<circle cx=" 22.0 " cy=" 56.0 " r="2" fill="black"/>
<circle cx=" 14.0 " cy=" 86.0 " r="2" fill="black"/>
<circle cx=" 34.0 " cy=" 128.0 " r="2" fill="black"/>
<circle cx=" 82.0 " cy=" 92.0 " r="2" fill="black"/>
<circle cx=" 110.0 " cy=" 68.0 " r="2" fill="black"/>
<circle cx=" 70.0 " cy=" 32.0 " r="2" fill="black"/>
<circle cx=" 104.0 " cy=" 52.0 " r="2" fill="black"/>
<circle cx=" 86.0 " cy=" 52.0 " r="2" fill="black"/>
<circle cx=" 62.0 " cy=" 152.0 " r="2" fill="black"/>
<circle cx=" 44.0 " cy=" 106.0 " r="2" fill="black"/>
<circle cx=" 52.0 " cy=" 58.0 " r="2" fill="black"/>
<circle cx=" 100.0 " cy=" 80.0 " r="2" fill="black"/>
<circle cx=" 110.0 " cy=" 100.0 " r="2" fill="black"/>
<circle cx=" 108.0 " cy=" 20.0 " r="2" fill="black"/>
<circle cx=" 120.0 " cy=" 30.0 " r="2" fill="black"/>
<circle cx=" 94.0 " cy=" 132.0 " r="2" fill="black"/>
<circle cx=" 60.0 " cy=" 120.0 " r="2" fill="black"/>
<circle cx=" 60.0 " cy=" 100.0 " r="2" fill="black"/>
<circle cx=" 24.0 " cy=" 34.0 " r="2" fill="black"/>
<circle cx=" 30.0 " cy=" 28.0 " r="2" fill="black"/>
<circle cx=" 32.0 " cy=" 38.0 " r="2" fill="black"/>
<circle cx=" 42.0 " cy=" 96.0 " r="2" fill="black"/>
<circle cx=" 100.0 " cy=" 60.0 " r="2" fill="black"/>
<circle cx=" 102.0 " cy=" 84.0 " r="2" fill="black"/>
<circle cx=" 100.0 " cy=" 30.0 " r="2" fill="black"/>
<circle cx=" 96.0 " cy=" 42.0 " r="2" fill="black"/>
<circle cx=" 24.0 " cy=" 76.0 " r="2" fill="black"/>
<circle cx=" 30.0 " cy=" 112.0 " r="2" fill="black"/>
<circle cx=" 58.0 " cy=" 78.0 " r="2" fill="black"/>
<circle cx=" 108.0 " cy=" 76.0 " r="2" fill="black"/>
<circle cx=" 110.0 " cy=" 114.0 " r="2" fill="black"/>
<circle cx=" 134.0 " cy=" 82.0 " r="2" fill="black"/>
<circle cx=" 20.0 " cy=" 140.0 " r="2" fill="black"/>
<circle cx=" 12.0 " cy=" 50.0 " r="2" fill="black"/>
<circle cx=" 130.0 " cy=" 54.0 " r="2" fill="black"/>
<circle cx=" 80.0 " cy=" 120.0 " r="2" fill="black"/>
<circle cx=" 140.0 " cy=" 128.0 " r="2" fill="black"/>
<circle cx=" 128.0 " cy=" 8.0 " r="2" fill="black"/>
<circle cx=" 72.0 " cy=" 12.0 " r="2" fill="black"/>
<circle cx=" 60.0 " cy=" 40.0 " r="2" fill="black"/>
<circle cx=" 40.0 " cy=" 60.0 " r="2" fill="black"/>
<circle cx=" 30.0 " cy=" 10.0 " r="2" fill="black"/>
</svg>