<svg xmlns="http://www.w3.org/2000/svg" version="1.1" width="200" height="200"> 
<rect x=" 60.0 " y=" 80.0 " height="8" width="8" fill="red"/>
<circle cx=" 84.0 " cy=" 82.0 " r="2" fill="black"/>
<circle cx=" 90.0 " cy=" 70.0 " r="2" fill="black"/>
<circle cx=" 104.0 " cy=" 66.0 " r="2" fill="black"/>
<circle cx=" 104.0 " cy=" 82.0 " r="2" fill="black"/>
<circle cx=" 98.0 " cy=" 98.0 " r="2" fill="black"/>
<circle cx=" 116.0 " cy=" 96.0 " r="2" fill="black"/>
<circle cx=" 124.0 " cy=" 84.0 " r="2" fill="black"/>
<circle cx=" 122.0 " cy=" 66.0 " r="2" fill="black"/>
<circle cx=" 116.0 " cy=" 54.0 " r="2" fill="black"/>
<circle cx=" 114.0 " cy=" 116.0 " r="2" fill="black"/>
<circle cx=" 124.0 " cy=" 126.0 " r="2" fill="black"/>
<circle cx=" 126.0 " cy=" 138.0 " r="2" fill="black"/>
<circle cx=" 104.0 " cy=" 128.0 " r="2" fill="black"/>
<circle cx=" 86.0 " cy=" 134.0 " r="2" fill="black"/>
<circle cx=" 74.0 " cy=" 138.0 " r="2" fill="black"/>
<circle cx=" 62.0 " cy=" 124.0 " r="2" fill="black"/>
<circle cx=" 54.0 " cy=" 136.0 " r="2" fill="black"/>
<circle cx=" 84.0 " cy=" 114.0 " r="2" fill="black"/>
<circle cx=" 74.0 " cy=" 104.0 " r="2" fill="black"/>
<line x1=" 60.0 " y1=" 80.0 " x2=" 84.0 " y2=" 82.0 " style="stroke:rgb(0,0,0);stroke-width:1" />
<line x1=" 84.0 " y1=" 82.0 " x2=" 90.0 " y2=" 70.0 " style="stroke:rgb(0,0,0);stroke-width:1" />
<line x1=" 90.0 " y1=" 70.0 " x2=" 104.0 " y2=" 66.0 " style="stroke:rgb(0,0,0);stroke-width:1" />
<line x1=" 104.0 " y1=" 66.0 " x2=" 104.0 " y2=" 82.0 " style="stroke:rgb(0,0,0);stroke-width:1" />
<line x1=" 104.0 " y1=" 82.0 " x2=" 98.0 " y2=" 98.0 " style="stroke:rgb(0,0,0);stroke-width:1" />
<line x1=" 98.0 " y1=" 98.0 " x2=" 116.0 " y2=" 96.0 " style="stroke:rgb(0,0,0);stroke-width:1" />
<line x1=" 116.0 " y1=" 96.0 " x2=" 124.0 " y2=" 84.0 " style="stroke:rgb(0,0,0);stroke-width:1" />
<line x1=" 124.0 " y1=" 84.0 " x2=" 122.0 " y2=" 66.0 " style="stroke:rgb(0,0,0);stroke-width:1" />
<line x1=" 122.0 " y1=" 66.0 " x2=" 60.0 " y2=" 80.0 " style="stroke:rgb(0,0,0);stroke-width:1" />
<line x1=" 60.0 " y1=" 80.0 " x2=" 116.0 " y2=" 54.0 " style="stroke:rgb(0,0,0);stroke-width:1" />
<line x1=" 116.0 " y1=" 54.0 " x2=" 114.0 " y2=" 116.0 " style="stroke:rgb(0,0,0);stroke-width:1" />
<line x1=" 114.0 " y1=" 116.0 " x2=" 124.0 " y2=" 126.0 " style="stroke:rgb(0,0,0);stroke-width:1" />
<line x1=" 124.0 " y1=" 126.0 " x2=" 126.0 " y2=" 138.0 " style="stroke:rgb(0,0,0);stroke-width:1" />
<line x1=" 126.0 " y1=" 138.0 " x2=" 104.0 " y2=" 128.0 " style="stroke:rgb(0,0,0);stroke-width:1" />
<line x1=" 104.0 " y1=" 128.0 " x2=" 86.0 " y2=" 134.0 " style="stroke:rgb(0,0,0);stroke-width:1" />
<line x1=" 86.0 " y1=" 134.0 " x2=" 74.0 " y2=" 138.0 " style="stroke:rgb(0,0,0);stroke-width:1" />
<line x1=" 74.0 " y1=" 138.0 " x2=" 62.0 " y2=" 124.0 " style="stroke:rgb(0,0,0);stroke-width:1" />
<line x1=" 62.0 " y1=" 124.0 " x2=" 54.0 " y2=" 136.0 " style="stroke:rgb(0,0,0);stroke-width:1" />
<line x1=" 54.0 " y1=" 136.0 " x2=" 84.0 " y2=" 114.0 " style="stroke:rgb(0,0,0);stroke-width:1" />
<line x1=" 84.0 " y1=" 114.0 " x2=" 60.0 " y2=" 80.0 " style="stroke:rgb(0,0,0);stroke-width:1" />
<line x1=" 60.0 " y1=" 80.0 " x2=" 74.0 " y2=" 104.0 " style="stroke:rgb(0,0,0);stroke-width:1" />
<line x1=" 74.0 " y1=" 104.0 " x2=" 60.0 " y2=" 80.0 " style="stroke:rgb(0,0,0);stroke-width:1" />
</svg>