<svg xmlns="http://www.w3.org/2000/svg" version="1.1" width="200" height="200"> 
<rect x=" 164.0 " y=" 152.0 " height="8" width="8" fill="red"/>
<circle cx=" 192.0 " cy=" 88.0 " r="2" fill="black"/>
<circle cx=" 100.0 " cy=" 10.0 " r="2" fill="black"/>
<circle cx=" 98.0 " cy=" 16.0 " r="2" fill="black"/>
<circle cx=" 26.0 " cy=" 14.0 " r="2" fill="black"/>
<circle cx=" 58.0 " cy=" 178.0 " r="2" fill="black"/>
<circle cx=" 116.0 " cy=" 60.0 " r="2" fill="black"/>
<circle cx=" 168.0 " cy=" 78.0 " r="2" fill="black"/>
<circle cx=" 28.0 " cy=" 48.0 " r="2" fill="black"/>
<circle cx=" 4.0 " cy=" 78.0 " r="2" fill="black"/>
<circle cx=" 6.0 " cy=" 164.0 " r="2" fill="black"/>
<circle cx=" 10.0 " cy=" 20.0 " r="2" fill="black"/>
<circle cx=" 196.0 " cy=" 104.0 " r="2" fill="black"/>
<circle cx=" 168.0 " cy=" 50.0 " r="2" fill="black"/>
<circle cx=" 122.0 " cy=" 118.0 " r="2" fill="black"/>
<circle cx=" 2.0 " cy=" 130.0 " r="2" fill="black"/>
<circle cx=" 176.0 " cy=" 102.0 " r="2" fill="black"/>
<circle cx=" 182.0 " cy=" 4.0 " r="2" fill="black"/>
<circle cx=" 38.0 " cy=" 64.0 " r="2" fill="black"/>
<circle cx=" 186.0 " cy=" 6.0 " r="2" fill="black"/>
<circle cx=" 100.0 " cy=" 186.0 " r="2" fill="black"/>
<circle cx=" 196.0 " cy=" 28.0 " r="2" fill="black"/>
<circle cx=" 10.0 " cy=" 84.0 " r="2" fill="black"/>
<circle cx=" 84.0 " cy=" 18.0 " r="2" fill="black"/>
<circle cx=" 122.0 " cy=" 124.0 " r="2" fill="black"/>
<circle cx=" 18.0 " cy=" 194.0 " r="2" fill="black"/>
<circle cx=" 160.0 " cy=" 110.0 " r="2" fill="black"/>
<circle cx=" 114.0 " cy=" 138.0 " r="2" fill="black"/>
<circle cx=" 46.0 " cy=" 30.0 " r="2" fill="black"/>
<circle cx=" 40.0 " cy=" 140.0 " r="2" fill="black"/>
<circle cx=" 170.0 " cy=" 120.0 " r="2" fill="black"/>
<circle cx=" 196.0 " cy=" 10.0 " r="2" fill="black"/>
</svg>