<svg xmlns="http://www.w3.org/2000/svg" version="1.1" width="200" height="200"> 
<rect x=" 38.0 " y=" 2.0 " height="8" width="8" fill="red"/>
<circle cx=" 166.0 " cy=" 122.0 " r="2" fill="black"/>
<circle cx=" 118.0 " cy=" 190.0 " r="2" fill="black"/>
<circle cx=" 146.0 " cy=" 50.0 " r="2" fill="black"/>
<circle cx=" 102.0 " cy=" 106.0 " r="2" fill="black"/>
<circle cx=" 46.0 " cy=" 98.0 " r="2" fill="black"/>
<circle cx=" 126.0 " cy=" 38.0 " r="2" fill="black"/>
<circle cx=" 102.0 " cy=" 162.0 " r="2" fill="black"/>
<circle cx=" 2.0 " cy=" 178.0 " r="2" fill="black"/>
<circle cx=" 194.0 " cy=" 82.0 " r="2" fill="black"/>
<circle cx=" 148.0 " cy=" 60.0 " r="2" fill="black"/>
<circle cx=" 120.0 " cy=" 176.0 " r="2" fill="black"/>
<circle cx=" 116.0 " cy=" 108.0 " r="2" fill="black"/>
<circle cx=" 126.0 " cy=" 190.0 " r="2" fill="black"/>
<circle cx=" 130.0 " cy=" 178.0 " r="2" fill="black"/>
<circle cx=" 12.0 " cy=" 188.0 " r="2" fill="black"/>
<circle cx=" 122.0 " cy=" 194.0 " r="2" fill="black"/>
<circle cx=" 150.0 " cy=" 62.0 " r="2" fill="black"/>
<circle cx=" 212.0 " cy=" 96.0 " r="2" fill="black"/>
<circle cx=" 138.0 " cy=" 186.0 " r="2" fill="black"/>
<circle cx=" 112.0 " cy=" 168.0 " r="2" fill="black"/>
<circle cx=" 52.0 " cy=" 108.0 " r="2" fill="black"/>
<circle cx=" 132.0 " cy=" 48.0 " r="2" fill="black"/>
<circle cx=" 120.0 " cy=" 196.0 " r="2" fill="black"/>
<circle cx=" 184.0 " cy=" 132.0 " r="2" fill="black"/>
<circle cx=" 16.0 " cy=" 184.0 " r="2" fill="black"/>
<circle cx=" 128.0 " cy=" 204.0 " r="2" fill="black"/>
<circle cx=" 208.0 " cy=" 96.0 " r="2" fill="black"/>
<circle cx=" 208.0 " cy=" 84.0 " r="2" fill="black"/>
<circle cx=" 60.0 " cy=" 104.0 " r="2" fill="black"/>
<circle cx=" 104.0 " cy=" 108.0 " r="2" fill="black"/>
<circle cx=" 154.0 " cy=" 66.0 " r="2" fill="black"/>
<circle cx=" 136.0 " cy=" 40.0 " r="2" fill="black"/>
<circle cx=" 112.0 " cy=" 124.0 " r="2" fill="black"/>
<circle cx=" 130.0 " cy=" 182.0 " r="2" fill="black"/>
<circle cx=" 108.0 " cy=" 120.0 " r="2" fill="black"/>
<circle cx=" 52.0 " cy=" 104.0 " r="2" fill="black"/>
<circle cx=" 104.0 " cy=" 180.0 " r="2" fill="black"/>
<circle cx=" 112.0 " cy=" 112.0 " r="2" fill="black"/>
<circle cx=" 132.0 " cy=" 204.0 " r="2" fill="black"/>
<circle cx=" 144.0 " cy=" 48.0 " r="2" fill="black"/>
<circle cx=" 56.0 " cy=" 112.0 " r="2" fill="black"/>
<circle cx=" 116.0 " cy=" 164.0 " r="2" fill="black"/>
<circle cx=" 168.0 " cy=" 132.0 " r="2" fill="black"/>
<circle cx=" 126.0 " cy=" 186.0 " r="2" fill="black"/>
<circle cx=" 176.0 " cy=" 128.0 " r="2" fill="black"/>
<circle cx=" 148.0 " cy=" 56.0 " r="2" fill="black"/>
<circle cx=" 52.0 " cy=" 100.0 " r="2" fill="black"/>
<circle cx=" 116.0 " cy=" 116.0 " r="2" fill="black"/>
<circle cx=" 104.0 " cy=" 112.0 " r="2" fill="black"/>
<circle cx=" 152.0 " cy=" 52.0 " r="2" fill="black"/>
<circle cx=" 16.0 " cy=" 184.0 " r="2" fill="black"/>
<circle cx=" 180.0 " cy=" 136.0 " r="2" fill="black"/>
<circle cx=" 64.0 " cy=" 100.0 " r="2" fill="black"/>
<circle cx=" 168.0 " cy=" 132.0 " r="2" fill="black"/>
<circle cx=" 156.0 " cy=" 68.0 " r="2" fill="black"/>
<circle cx=" 128.0 " cy=" 48.0 " r="2" fill="black"/>
</svg>