<svg xmlns="http://www.w3.org/2000/svg" version="1.1" width="200" height="200"> 
<rect x=" 50.0 " y=" 102.0 " height="8" width="8" fill="red"/>
<circle cx=" 30.0 " cy=" 106.0 " r="2" fill="black"/>
<circle cx=" 34.0 " cy=" 118.0 " r="2" fill="black"/>
<circle cx=" 22.0 " cy=" 138.0 " r="2" fill="black"/>
<circle cx=" 18.0 " cy=" 154.0 " r="2" fill="black"/>
<circle cx=" 2.0 " cy=" 154.0 " r="2" fill="black"/>
<circle cx=" 2.0 " cy=" 150.0 " r="2" fill="black"/>
<circle cx=" 2.0 " cy=" 134.0 " r="2" fill="black"/>
<circle cx=" 6.0 " cy=" 130.0 " r="2" fill="black"/>
<circle cx=" 6.0 " cy=" 126.0 " r="2" fill="black"/>
<circle cx=" 18.0 " cy=" 90.0 " r="2" fill="black"/>
<circle cx=" 50.0 " cy=" 66.0 " r="2" fill="black"/>
<circle cx=" 50.0 " cy=" 42.0 " r="2" fill="black"/>
<circle cx=" 42.0 " cy=" 26.0 " r="2" fill="black"/>
<circle cx=" 30.0 " cy=" 14.0 " r="2" fill="black"/>
<circle cx=" 14.0 " cy=" 18.0 " r="2" fill="black"/>
<circle cx=" 18.0 " cy=" 38.0 " r="2" fill="black"/>
<circle cx=" 18.0 " cy=" 38.0 " r="2" fill="black"/>
<circle cx=" 18.0 " cy=" 46.0 " r="2" fill="black"/>
<circle cx=" 10.0 " cy=" 38.0 " r="2" fill="black"/>
<circle cx=" 70.0 " cy=" 22.0 " r="2" fill="black"/>
<circle cx=" 70.0 " cy=" 14.0 " r="2" fill="black"/>
<circle cx=" 78.0 " cy=" 2.0 " r="2" fill="black"/>
<circle cx=" 94.0 " cy=" 2.0 " r="2" fill="black"/>
<circle cx=" 114.0 " cy=" 18.0 " r="2" fill="black"/>
<circle cx=" 118.0 " cy=" 42.0 " r="2" fill="black"/>
<circle cx=" 110.0 " cy=" 50.0 " r="2" fill="black"/>
<circle cx=" 98.0 " cy=" 62.0 " r="2" fill="black"/>
<circle cx=" 90.0 " cy=" 58.0 " r="2" fill="black"/>
<circle cx=" 94.0 " cy=" 38.0 " r="2" fill="black"/>
<circle cx=" 138.0 " cy=" 54.0 " r="2" fill="black"/>
<circle cx=" 154.0 " cy=" 34.0 " r="2" fill="black"/>
<circle cx=" 154.0 " cy=" 34.0 " r="2" fill="black"/>
<circle cx=" 158.0 " cy=" 34.0 " r="2" fill="black"/>
<circle cx=" 150.0 " cy=" 14.0 " r="2" fill="black"/>
<circle cx=" 158.0 " cy=" 10.0 " r="2" fill="black"/>
<circle cx=" 138.0 " cy=" 10.0 " r="2" fill="black"/>
<circle cx=" 134.0 " cy=" 2.0 " r="2" fill="black"/>
<circle cx=" 186.0 " cy=" 42.0 " r="2" fill="black"/>
<circle cx=" 182.0 " cy=" 78.0 " r="2" fill="black"/>
<circle cx=" 174.0 " cy=" 82.0 " r="2" fill="black"/>
<circle cx=" 154.0 " cy=" 82.0 " r="2" fill="black"/>
<circle cx=" 186.0 " cy=" 102.0 " r="2" fill="black"/>
<circle cx=" 190.0 " cy=" 114.0 " r="2" fill="black"/>
<circle cx=" 194.0 " cy=" 134.0 " r="2" fill="black"/>
<circle cx=" 186.0 " cy=" 150.0 " r="2" fill="black"/>
<circle cx=" 166.0 " cy=" 158.0 " r="2" fill="black"/>
<circle cx=" 166.0 " cy=" 142.0 " r="2" fill="black"/>
<circle cx=" 150.0 " cy=" 166.0 " r="2" fill="black"/>
<circle cx=" 134.0 " cy=" 150.0 " r="2" fill="black"/>
<circle cx=" 126.0 " cy=" 154.0 " r="2" fill="black"/>
<circle cx=" 126.0 " cy=" 158.0 " r="2" fill="black"/>
<circle cx=" 122.0 " cy=" 174.0 " r="2" fill="black"/>
<circle cx=" 118.0 " cy=" 182.0 " r="2" fill="black"/>
<circle cx=" 106.0 " cy=" 190.0 " r="2" fill="black"/>
<circle cx=" 102.0 " cy=" 162.0 " r="2" fill="black"/>
<circle cx=" 66.0 " cy=" 170.0 " r="2" fill="black"/>
<circle cx=" 54.0 " cy=" 166.0 " r="2" fill="black"/>
<circle cx=" 42.0 " cy=" 182.0 " r="2" fill="black"/>
<circle cx=" 30.0 " cy=" 194.0 " r="2" fill="black"/>
<circle cx=" 66.0 " cy=" 194.0 " r="2" fill="black"/>
<circle cx=" 62.0 " cy=" 138.0 " r="2" fill="black"/>
<circle cx=" 74.0 " cy=" 130.0 " r="2" fill="black"/>
<circle cx=" 102.0 " cy=" 110.0 " r="2" fill="black"/>
<circle cx=" 126.0 " cy=" 114.0 " r="2" fill="black"/>
<line x1=" 50.0 " y1=" 102.0 " x2=" 30.0 " y2=" 106.0 " style="stroke:rgb(0,0,0);stroke-width:1" />
<line x1=" 30.0 " y1=" 106.0 " x2=" 18.0 " y2=" 90.0 " style="stroke:rgb(0,0,0);stroke-width:1" />
<line x1=" 18.0 " y1=" 90.0 " x2=" 70.0 " y2=" 22.0 " style="stroke:rgb(0,0,0);stroke-width:1" />
<line x1=" 70.0 " y1=" 22.0 " x2=" 70.0 " y2=" 14.0 " style="stroke:rgb(0,0,0);stroke-width:1" />
<line x1=" 70.0 " y1=" 14.0 " x2=" 78.0 " y2=" 2.0 " style="stroke:rgb(0,0,0);stroke-width:1" />
<line x1=" 78.0 " y1=" 2.0 " x2=" 94.0 " y2=" 2.0 " style="stroke:rgb(0,0,0);stroke-width:1" />
<line x1=" 94.0 " y1=" 2.0 " x2=" 110.0 " y2=" 50.0 " style="stroke:rgb(0,0,0);stroke-width:1" />
<line x1=" 110.0 " y1=" 50.0 " x2=" 98.0 " y2=" 62.0 " style="stroke:rgb(0,0,0);stroke-width:1" />
<line x1=" 98.0 " y1=" 62.0 " x2=" 90.0 " y2=" 58.0 " style="stroke:rgb(0,0,0);stroke-width:1" />
<line x1=" 90.0 " y1=" 58.0 " x2=" 50.0 " y2=" 102.0 " style="stroke:rgb(0,0,0);stroke-width:1" />
<line x1=" 50.0 " y1=" 102.0 " x2=" 22.0 " y2=" 138.0 " style="stroke:rgb(0,0,0);stroke-width:1" />
<line x1=" 22.0 " y1=" 138.0 " x2=" 18.0 " y2=" 154.0 " style="stroke:rgb(0,0,0);stroke-width:1" />
<line x1=" 18.0 " y1=" 154.0 " x2=" 2.0 " y2=" 154.0 " style="stroke:rgb(0,0,0);stroke-width:1" />
<line x1=" 2.0 " y1=" 154.0 " x2=" 2.0 " y2=" 150.0 " style="stroke:rgb(0,0,0);stroke-width:1" />
<line x1=" 2.0 " y1=" 150.0 " x2=" 2.0 " y2=" 134.0 " style="stroke:rgb(0,0,0);stroke-width:1" />
<line x1=" 2.0 " y1=" 134.0 " x2=" 6.0 " y2=" 130.0 " style="stroke:rgb(0,0,0);stroke-width:1" />
<line x1=" 6.0 " y1=" 130.0 " x2=" 6.0 " y2=" 126.0 " style="stroke:rgb(0,0,0);stroke-width:1" />
<line x1=" 6.0 " y1=" 126.0 " x2=" 50.0 " y2=" 102.0 " style="stroke:rgb(0,0,0);stroke-width:1" />
<line x1=" 50.0 " y1=" 102.0 " x2=" 50.0 " y2=" 66.0 " style="stroke:rgb(0,0,0);stroke-width:1" />
<line x1=" 50.0 " y1=" 66.0 " x2=" 50.0 " y2=" 102.0 " style="stroke:rgb(0,0,0);stroke-width:1" />
<line x1=" 50.0 " y1=" 102.0 " x2=" 50.0 " y2=" 42.0 " style="stroke:rgb(0,0,0);stroke-width:1" />
<line x1=" 50.0 " y1=" 42.0 " x2=" 42.0 " y2=" 26.0 " style="stroke:rgb(0,0,0);stroke-width:1" />
<line x1=" 42.0 " y1=" 26.0 " x2=" 30.0 " y2=" 14.0 " style="stroke:rgb(0,0,0);stroke-width:1" />
<line x1=" 30.0 " y1=" 14.0 " x2=" 14.0 " y2=" 18.0 " style="stroke:rgb(0,0,0);stroke-width:1" />
<line x1=" 14.0 " y1=" 18.0 " x2=" 10.0 " y2=" 38.0 " style="stroke:rgb(0,0,0);stroke-width:1" />
<line x1=" 10.0 " y1=" 38.0 " x2=" 18.0 " y2=" 38.0 " style="stroke:rgb(0,0,0);stroke-width:1" />
<line x1=" 18.0 " y1=" 38.0 " x2=" 18.0 " y2=" 38.0 " style="stroke:rgb(0,0,0);stroke-width:1" />
<line x1=" 18.0 " y1=" 38.0 " x2=" 18.0 " y2=" 46.0 " style="stroke:rgb(0,0,0);stroke-width:1" />
<line x1=" 18.0 " y1=" 46.0 " x2=" 50.0 " y2=" 102.0 " style="stroke:rgb(0,0,0);stroke-width:1" />
<line x1=" 50.0 " y1=" 102.0 " x2=" 138.0 " y2=" 54.0 " style="stroke:rgb(0,0,0);stroke-width:1" />
<line x1=" 138.0 " y1=" 54.0 " x2=" 150.0 " y2=" 14.0 " style="stroke:rgb(0,0,0);stroke-width:1" />
<line x1=" 150.0 " y1=" 14.0 " x2=" 158.0 " y2=" 10.0 " style="stroke:rgb(0,0,0);stroke-width:1" />
<line x1=" 158.0 " y1=" 10.0 " x2=" 138.0 " y2=" 10.0 " style="stroke:rgb(0,0,0);stroke-width:1" />
<line x1=" 138.0 " y1=" 10.0 " x2=" 134.0 " y2=" 2.0 " style="stroke:rgb(0,0,0);stroke-width:1" />
<line x1=" 134.0 " y1=" 2.0 " x2=" 114.0 " y2=" 18.0 " style="stroke:rgb(0,0,0);stroke-width:1" />
<line x1=" 114.0 " y1=" 18.0 " x2=" 94.0 " y2=" 38.0 " style="stroke:rgb(0,0,0);stroke-width:1" />
<line x1=" 94.0 " y1=" 38.0 " x2=" 50.0 " y2=" 102.0 " style="stroke:rgb(0,0,0);stroke-width:1" />
<line x1=" 50.0 " y1=" 102.0 " x2=" 186.0 " y2=" 42.0 " style="stroke:rgb(0,0,0);stroke-width:1" />
<line x1=" 186.0 " y1=" 42.0 " x2=" 158.0 " y2=" 34.0 " style="stroke:rgb(0,0,0);stroke-width:1" />
<line x1=" 158.0 " y1=" 34.0 " x2=" 154.0 " y2=" 34.0 " style="stroke:rgb(0,0,0);stroke-width:1" />
<line x1=" 154.0 " y1=" 34.0 " x2=" 154.0 " y2=" 34.0 " style="stroke:rgb(0,0,0);stroke-width:1" />
<line x1=" 154.0 " y1=" 34.0 " x2=" 118.0 " y2=" 42.0 " style="stroke:rgb(0,0,0);stroke-width:1" />
<line x1=" 118.0 " y1=" 42.0 " x2=" 50.0 " y2=" 102.0 " style="stroke:rgb(0,0,0);stroke-width:1" />
<line x1=" 50.0 " y1=" 102.0 " x2=" 154.0 " y2=" 82.0 " style="stroke:rgb(0,0,0);stroke-width:1" />
<line x1=" 154.0 " y1=" 82.0 " x2=" 182.0 " y2=" 78.0 " style="stroke:rgb(0,0,0);stroke-width:1" />
<line x1=" 182.0 " y1=" 78.0 " x2=" 174.0 " y2=" 82.0 " style="stroke:rgb(0,0,0);stroke-width:1" />
<line x1=" 174.0 " y1=" 82.0 " x2=" 186.0 " y2=" 102.0 " style="stroke:rgb(0,0,0);stroke-width:1" />
<line x1=" 186.0 " y1=" 102.0 " x2=" 190.0 " y2=" 114.0 " style="stroke:rgb(0,0,0);stroke-width:1" />
<line x1=" 190.0 " y1=" 114.0 " x2=" 194.0 " y2=" 134.0 " style="stroke:rgb(0,0,0);stroke-width:1" />
<line x1=" 194.0 " y1=" 134.0 " x2=" 186.0 " y2=" 150.0 " style="stroke:rgb(0,0,0);stroke-width:1" />
<line x1=" 186.0 " y1=" 150.0 " x2=" 166.0 " y2=" 158.0 " style="stroke:rgb(0,0,0);stroke-width:1" />
<line x1=" 166.0 " y1=" 158.0 " x2=" 50.0 " y2=" 102.0 " style="stroke:rgb(0,0,0);stroke-width:1" />
<line x1=" 50.0 " y1=" 102.0 " x2=" 102.0 " y2=" 162.0 " style="stroke:rgb(0,0,0);stroke-width:1" />
<line x1=" 102.0 " y1=" 162.0 " x2=" 122.0 " y2=" 174.0 " style="stroke:rgb(0,0,0);stroke-width:1" />
<line x1=" 122.0 " y1=" 174.0 " x2=" 118.0 " y2=" 182.0 " style="stroke:rgb(0,0,0);stroke-width:1" />
<line x1=" 118.0 " y1=" 182.0 " x2=" 106.0 " y2=" 190.0 " style="stroke:rgb(0,0,0);stroke-width:1" />
<line x1=" 106.0 " y1=" 190.0 " x2=" 66.0 " y2=" 194.0 " style="stroke:rgb(0,0,0);stroke-width:1" />
<line x1=" 66.0 " y1=" 194.0 " x2=" 42.0 " y2=" 182.0 " style="stroke:rgb(0,0,0);stroke-width:1" />
<line x1=" 42.0 " y1=" 182.0 " x2=" 30.0 " y2=" 194.0 " style="stroke:rgb(0,0,0);stroke-width:1" />
<line x1=" 30.0 " y1=" 194.0 " x2=" 50.0 " y2=" 102.0 " style="stroke:rgb(0,0,0);stroke-width:1" />
<line x1=" 50.0 " y1=" 102.0 " x2=" 74.0 " y2=" 130.0 " style="stroke:rgb(0,0,0);stroke-width:1" />
<line x1=" 74.0 " y1=" 130.0 " x2=" 62.0 " y2=" 138.0 " style="stroke:rgb(0,0,0);stroke-width:1" />
<line x1=" 62.0 " y1=" 138.0 " x2=" 66.0 " y2=" 170.0 " style="stroke:rgb(0,0,0);stroke-width:1" />
<line x1=" 66.0 " y1=" 170.0 " x2=" 54.0 " y2=" 166.0 " style="stroke:rgb(0,0,0);stroke-width:1" />
<line x1=" 54.0 " y1=" 166.0 " x2=" 34.0 " y2=" 118.0 " style="stroke:rgb(0,0,0);stroke-width:1" />
<line x1=" 34.0 " y1=" 118.0 " x2=" 50.0 " y2=" 102.0 " style="stroke:rgb(0,0,0);stroke-width:1" />
<line x1=" 50.0 " y1=" 102.0 " x2=" 102.0 " y2=" 110.0 " style="stroke:rgb(0,0,0);stroke-width:1" />
<line x1=" 102.0 " y1=" 110.0 " x2=" 126.0 " y2=" 114.0 " style="stroke:rgb(0,0,0);stroke-width:1" />
<line x1=" 126.0 " y1=" 114.0 " x2=" 166.0 " y2=" 142.0 " style="stroke:rgb(0,0,0);stroke-width:1" />
<line x1=" 166.0 " y1=" 142.0 " x2=" 150.0 " y2=" 166.0 " style="stroke:rgb(0,0,0);stroke-width:1" />
<line x1=" 150.0 " y1=" 166.0 " x2=" 134.0 " y2=" 150.0 " style="stroke:rgb(0,0,0);stroke-width:1" />
<line x1=" 134.0 " y1=" 150.0 " x2=" 126.0 " y2=" 154.0 " style="stroke:rgb(0,0,0);stroke-width:1" />
<line x1=" 126.0 " y1=" 154.0 " x2=" 126.0 " y2=" 158.0 " style="stroke:rgb(0,0,0);stroke-width:1" />
<line x1=" 126.0 " y1=" 158.0 " x2=" 50.0 " y2=" 102.0 " style="stroke:rgb(0,0,0);stroke-width:1" />
</svg>